<svg width="140" height="40" viewBox="0 0 140 40" fill="none" xmlns="http://www.w3.org/2000/svg">
<path d="M29.1667 4.14904C29.2186 4.1486 29.2705 4.14815 29.3239 4.14769C30.488 4.13971 31.6295 4.15029 32.7792 4.34279C32.8379 4.35259 32.8967 4.36239 32.9572 4.37248C35.917 4.88391 38.85 6.08181 41.1114 8.09136C41.1453 8.12128 41.1792 8.15119 41.2142 8.18201C41.8134 8.71478 42.4168 9.27539 42.8969 9.91994C42.9358 9.9706 42.9746 10.0213 43.0135 10.0719C44.0546 11.4438 44.8283 12.9968 45.2318 14.6742C45.2512 14.7373 45.2512 14.7373 45.2709 14.8016C45.2776 14.9485 45.2776 14.9485 45.1847 15.08C45.1389 15.1268 45.0922 15.1727 45.0448 15.218C45.0195 15.2433 44.9942 15.2687 44.9681 15.2949C44.8842 15.3787 44.7991 15.4614 44.7141 15.544C44.6553 15.6023 44.5965 15.6606 44.5379 15.7189C44.383 15.8726 44.2272 16.0253 44.0711 16.1778C43.9447 16.3017 43.819 16.4262 43.6933 16.5508C42.6475 17.5873 42.6475 17.5873 42.3283 17.8574C42.2061 17.9631 42.0941 18.0787 41.9813 18.1942C41.8012 18.3765 41.6178 18.5504 41.4224 18.7165C41.3379 18.7907 41.259 18.8684 41.1801 18.9485C41.0767 19.0533 40.9713 19.1526 40.8596 19.2485C40.6717 19.4101 40.4911 19.5791 40.3103 19.7485C40.1062 19.9395 39.9017 20.1289 39.6895 20.311C39.577 20.4091 39.4674 20.5104 39.3574 20.6114C39.1926 20.7617 39.025 20.906 38.851 21.0457C38.6585 21.2006 38.4762 21.3628 38.2959 21.5314C38.0759 21.7371 37.8494 21.9305 37.6143 22.119C37.4948 22.217 37.3801 22.3187 37.2658 22.4228C37.0716 22.5993 36.8711 22.7659 36.667 22.9308C36.5207 23.0502 36.3767 23.1719 36.2328 23.2942C36.0271 23.4688 35.8191 23.6398 35.6075 23.8073C35.4776 23.9107 35.3487 24.0153 35.22 24.1202C34.8781 24.3986 34.5334 24.673 34.1857 24.9441C34.1055 25.0067 34.0254 25.0696 33.9454 25.1326C33.6191 25.3894 33.2915 25.6443 32.9616 25.8963C32.8948 25.9473 32.8281 25.9984 32.7614 26.0495C32.2961 26.4061 31.8296 26.7589 31.3502 27.0962C31.2275 27.1832 31.106 27.2718 30.9842 27.3601C29.2321 28.6312 27.4185 29.8167 25.5457 30.9028C25.4836 30.9388 25.4836 30.9388 25.4203 30.9756C22.638 32.5842 19.5818 34.065 16.3436 34.3771C16.2711 34.3847 16.2711 34.3847 16.1971 34.3924C14.5996 34.5348 13.0089 34.3393 11.4908 33.8285C11.4583 33.8176 11.4258 33.8067 11.3923 33.7955C10.9159 33.6328 10.4701 33.4239 10.0258 33.1885C9.99233 33.1711 9.95891 33.1536 9.92447 33.1356C9.42177 32.8721 8.96267 32.5768 8.51497 32.2285C8.47372 32.197 8.43246 32.1656 8.38996 32.1332C7.68042 31.5812 7.001 30.9312 6.4548 30.2171C6.43194 30.1879 6.40908 30.1586 6.38552 30.1285C4.68159 27.9436 3.72687 25.2103 3.73938 22.4399C3.73946 22.4012 3.73954 22.3625 3.73963 22.3225C3.74193 21.6847 3.77628 21.0629 3.89103 20.4342C3.90208 20.3711 3.90208 20.3711 3.91336 20.3068C4.27533 18.2975 5.18578 16.4237 6.54636 14.9028C6.56831 14.8781 6.59025 14.8533 6.61286 14.8278C8.45136 12.7639 11.0669 11.5156 13.8256 11.3371C16.6261 11.2084 19.2651 12.076 21.6085 13.5771C20.9576 12.1629 19.8122 11.2064 18.4953 10.4228C18.7778 9.47215 19.4513 8.64072 20.0977 7.90851C20.1472 7.8507 20.1472 7.8507 20.1977 7.79172C20.3934 7.56537 20.6009 7.36892 20.8302 7.17708C20.8968 7.11909 20.8968 7.11909 20.9647 7.05994C21.504 6.5918 22.0875 6.20439 22.7073 5.85136C22.7385 5.8334 22.7697 5.81543 22.8019 5.79692C24.6897 4.72206 26.9963 4.16458 29.1667 4.14904Z" fill="#177DBD"/>
<path d="M49.2971 18.3845C50.464 18.6904 51.6071 19.749 52.4652 20.5715C52.5004 20.6048 52.5004 20.6048 52.5364 20.6388C52.9018 20.9853 53.2178 21.3564 53.5182 21.7601C53.5467 21.798 53.5753 21.8359 53.6047 21.8749C54.7393 23.434 55.3048 25.3778 55.0232 27.3001C54.8137 28.586 54.2869 29.7938 53.4724 30.8115C53.4302 30.8676 53.4302 30.8676 53.3871 30.9249C52.8795 31.58 52.2569 32.1892 51.5838 32.6737C51.4989 32.735 51.4154 32.798 51.3317 32.861C50.7814 33.2687 50.1868 33.6019 49.581 33.9201C49.5531 33.9386 49.5252 33.9571 49.4965 33.9762C49.1128 34.2074 48.7087 34.1845 48.2759 34.1868C48.1884 34.188 48.1009 34.1894 48.0134 34.1909C47.8222 34.194 47.6311 34.1963 47.4399 34.1981C47.1254 34.2011 46.811 34.2056 46.4966 34.2103C46.1195 34.2159 45.7424 34.2212 45.3652 34.226C44.4609 34.2376 43.5567 34.2523 42.6525 34.2682C42.5803 34.2694 42.5081 34.2707 42.4359 34.2719C42.1426 34.2771 41.8492 34.2822 41.5558 34.2873C40.767 34.3011 39.9781 34.3143 39.1893 34.3275C38.999 34.3306 38.8088 34.3338 38.6185 34.337C38.5421 34.3383 38.4658 34.3395 38.3894 34.3408C38.3515 34.3414 38.3136 34.3421 38.2746 34.3427C38.1597 34.3446 38.0447 34.3465 37.9298 34.3485C37.382 34.3576 36.8341 34.3668 36.2863 34.376C35.5937 34.3877 34.901 34.3993 34.2084 34.4109C34.1347 34.4121 34.061 34.4133 33.9873 34.4146C33.933 34.4155 33.933 34.4155 33.8776 34.4164C33.6253 34.4206 33.3729 34.4249 33.1206 34.4291C32.8154 34.4343 32.5103 34.4394 32.2051 34.4444C32.0502 34.447 31.8954 34.4496 31.7405 34.4522C30.5502 34.4723 30.5502 34.4723 30.0322 34.4686C30.2014 34.2415 30.3992 34.076 30.6201 33.8997C30.7783 33.7731 30.9317 33.641 31.0852 33.5086C31.3136 33.3121 31.545 33.1199 31.7791 32.9301C31.9311 32.805 32.0805 32.6771 32.2297 32.5486C32.4593 32.3512 32.6915 32.1577 32.9267 31.967C33.0696 31.85 33.2106 31.731 33.3514 31.6115C33.5321 31.4582 33.7138 31.3065 33.8979 31.1572C34.1206 30.9763 34.3384 30.7902 34.5558 30.6031C34.7568 30.4306 34.9611 30.2626 35.1669 30.0958C35.3189 29.9707 35.4683 29.8428 35.6176 29.7144C35.8471 29.5169 36.0793 29.3235 36.3145 29.1328C36.4574 29.0158 36.5984 28.8967 36.7392 28.7772C36.9199 28.6239 37.1017 28.4722 37.2857 28.3229C37.4801 28.165 37.671 28.0034 37.8609 27.8401C38.0905 27.6425 38.3229 27.449 38.5581 27.2581C38.8014 27.059 39.0404 26.8549 39.2801 26.6515C39.6013 26.3789 39.9236 26.1084 40.2505 25.8426C40.4941 25.6427 40.7338 25.4382 40.974 25.2344C41.2952 24.9618 41.6175 24.6912 41.9444 24.4254C42.188 24.2256 42.4277 24.0211 42.6679 23.8172C42.9891 23.5447 43.3115 23.2741 43.6383 23.0083C43.8819 22.8084 44.1216 22.604 44.3619 22.4001C44.683 22.1275 45.0054 21.857 45.3322 21.5912C45.5758 21.3913 45.8155 21.1868 46.0558 20.9829C46.3769 20.7104 46.6993 20.4398 47.0261 20.174C47.2697 19.9741 47.5095 19.7697 47.7497 19.5658C48.0763 19.2886 48.4032 19.0123 48.737 18.7438C48.8366 18.6613 48.9293 18.5748 49.023 18.4858C49.1689 18.3772 49.1689 18.3772 49.2971 18.3845Z" fill="#177DBD"/>
<path d="M69.542 13.3943C70.388 13.3943 71.2341 13.3943 72.1058 13.3943C72.1209 15.2498 72.136 17.1054 72.1515 19.0171C72.5388 18.5147 72.5388 18.5147 72.9012 17.9971C73.0871 17.722 73.2776 17.4524 73.4792 17.1886C73.6787 16.9274 73.8673 16.6607 74.0515 16.3886C74.2565 16.0856 74.4692 15.7908 74.6913 15.5001C74.8695 15.2653 75.0366 15.0241 75.2017 14.78C75.4069 14.4769 75.6189 14.1827 75.8454 13.8952C75.9491 13.772 75.9491 13.772 75.998 13.6681C76.0637 13.5521 76.1214 13.4778 76.2261 13.3943C76.4512 13.3425 76.6744 13.3516 76.9039 13.3586C76.9702 13.3593 77.0365 13.3598 77.1029 13.3601C77.2768 13.3615 77.4506 13.3651 77.6244 13.3692C77.8021 13.3729 77.9798 13.3746 78.1575 13.3764C78.5057 13.3803 78.8538 13.3866 79.2019 13.3943C79.1423 13.5484 79.0839 13.6701 78.9805 13.7995C78.9547 13.8321 78.9289 13.8647 78.9024 13.8983C78.8747 13.9328 78.847 13.9673 78.8185 14.0029C78.7599 14.0769 78.7014 14.151 78.6429 14.2252C78.6136 14.2623 78.5842 14.2994 78.554 14.3376C78.4318 14.4937 78.3131 14.6524 78.1947 14.8114C78.0024 15.0692 77.8065 15.3239 77.6081 15.5771C77.3775 15.8716 77.151 16.1689 76.9271 16.4686C76.7131 16.7549 76.4967 17.0388 76.2745 17.3189C76.0359 17.6201 75.8032 17.9258 75.5701 18.2313C75.262 18.6347 74.9533 19.0377 74.6438 19.44C74.6088 19.4855 74.5738 19.531 74.5377 19.5779C74.4406 19.7029 74.4406 19.7029 74.3335 19.8193C74.2485 19.9236 74.2485 19.9236 74.2527 20.0382C74.3275 20.2183 74.4421 20.3572 74.5637 20.5086C74.6183 20.5783 74.6729 20.648 74.7275 20.7179C74.7558 20.7539 74.7841 20.79 74.8132 20.8272C74.9506 21.0044 75.0834 21.185 75.216 21.3657C75.2426 21.4018 75.2692 21.438 75.2966 21.4752C75.3506 21.5487 75.4046 21.6222 75.4585 21.6957C75.592 21.8773 75.7259 22.0586 75.8598 22.24C75.9133 22.3124 75.9667 22.3848 76.0201 22.4571C76.0465 22.493 76.073 22.5288 76.1002 22.5657C76.3406 22.8914 76.3406 22.8914 76.4207 23C76.474 23.0723 76.5274 23.1446 76.5807 23.2168C76.7155 23.3994 76.8502 23.5821 76.9847 23.7648C77.256 24.1332 77.5285 24.5006 77.8038 24.8659C78.0086 25.1381 78.2108 25.4122 78.4125 25.6867C78.5455 25.8674 78.6793 26.0474 78.8153 26.2259C78.8409 26.2596 78.8665 26.2933 78.8929 26.328C78.9414 26.3918 78.9902 26.4554 79.0392 26.5189C79.2019 26.7328 79.2019 26.7328 79.2019 26.8343C78.8183 26.8535 78.4348 26.868 78.0508 26.8769C77.8724 26.8812 77.6944 26.887 77.5162 26.8964C76.3712 26.9552 76.3712 26.9552 76.0603 26.7583C75.8664 26.5713 75.7445 26.354 75.6325 26.1111C75.5712 25.9821 75.4921 25.8722 75.4061 25.7584C75.358 25.6894 75.3099 25.6205 75.2618 25.5514C75.208 25.4744 75.1542 25.3974 75.1003 25.3204C75.0742 25.2829 75.0481 25.2455 75.0211 25.207C74.8357 24.9422 74.6486 24.6786 74.4618 24.4147C74.3943 24.3192 74.3268 24.2235 74.2595 24.1279C74.0255 23.7959 73.7897 23.4655 73.5507 23.1371C73.3213 22.8217 73.0985 22.5023 72.8807 22.1787C72.6469 21.8332 72.3993 21.5031 72.1515 21.1657C72.1364 23.0363 72.1213 24.907 72.1058 26.8343C71.2597 26.8343 70.4137 26.8343 69.542 26.8343C69.542 22.3991 69.542 17.9639 69.542 13.3943Z" fill="#121212"/>
<path d="M66.0752 13.9739C66.8357 14.621 67.3466 15.3673 67.5276 16.3656C67.5427 16.5768 67.5578 16.788 67.5733 17.0056C66.7122 17.0056 65.851 17.0056 64.9638 17.0056C64.9185 16.8246 64.8731 16.6436 64.8264 16.4571C64.6296 16.092 64.3979 15.8758 64.0117 15.7196C63.6525 15.6225 63.2167 15.6166 62.875 15.7742C62.5893 15.9449 62.3901 16.1712 62.2872 16.4894C62.1854 16.9249 62.1937 17.3005 62.407 17.6983C62.8206 18.322 63.7096 18.5444 64.3866 18.7746C65.155 19.0374 65.8419 19.3155 66.4746 19.8399C66.5145 19.8723 66.5545 19.9048 66.5957 19.9381C67.3484 20.5778 67.7672 21.4417 67.8824 22.4114C67.8873 22.4837 67.8911 22.5561 67.8938 22.6285C67.8956 22.6699 67.8975 22.7114 67.8994 22.754C67.9232 23.8083 67.6213 24.7919 66.9324 25.5999C66.9063 25.6326 66.8802 25.6652 66.8534 25.6989C66.1331 26.5649 65.0902 27.0626 63.9802 27.1817C62.7046 27.289 61.5365 26.9322 60.553 26.1142C59.823 25.4856 59.3529 24.6789 59.1953 23.7256C59.1953 23.4994 59.1953 23.2731 59.1953 23.0399C60.0565 23.0399 60.9176 23.0399 61.8049 23.0399C61.8502 23.2511 61.8955 23.4623 61.9422 23.6799C62.1567 24.1236 62.4255 24.3894 62.8893 24.5656C63.3936 24.7291 63.8673 24.7332 64.3686 24.5485C64.7702 24.3303 65.0941 24.029 65.2524 23.5946C65.3716 23.0583 65.3269 22.4966 65.0391 22.0237C64.5585 21.3379 63.7378 21.0733 62.9752 20.8228C62.5479 20.6821 62.1292 20.5389 61.7258 20.3381C61.6823 20.3165 61.6823 20.3165 61.6379 20.2944C60.7597 19.8414 60.0927 19.0426 59.7905 18.1028C59.5401 17.1453 59.575 16.0678 60.0649 15.1867C60.6505 14.1908 61.5077 13.5384 62.625 13.243C63.8498 12.9689 65.0809 13.2101 66.0752 13.9739Z" fill="#121212"/>
<path d="M46.7427 15.0857C46.8723 15.1504 46.8844 15.2311 46.943 15.3628C47.2584 16.0049 47.7388 16.5175 48.2535 17.0057C48.3147 17.0664 48.3759 17.1273 48.4366 17.1886C48.1689 17.4599 47.903 17.7291 47.6122 17.9761C47.4596 18.1117 47.3186 18.2589 47.1751 18.4039C47.0499 18.5274 46.919 18.6418 46.7853 18.7561C46.6622 18.865 46.5479 18.9818 46.4337 19.1C46.3443 19.1867 46.2531 19.2684 46.159 19.35C45.9674 19.5162 45.7824 19.6886 45.5982 19.8628C45.3867 20.0628 45.1729 20.2587 44.9529 20.4494C44.8223 20.5637 44.6952 20.6817 44.5681 20.8C44.3026 21.0457 44.0327 21.2849 43.7573 21.5194C43.7023 21.5663 43.6473 21.6131 43.5924 21.66C43.5646 21.6836 43.5369 21.7073 43.5083 21.7316C43.337 21.8782 43.169 22.0275 43.0029 22.18C42.8011 22.365 42.5921 22.5384 42.379 22.7102C42.2585 22.8094 42.1426 22.9121 42.0272 23.0171C41.8338 23.1929 41.6341 23.3585 41.4308 23.5227C41.2793 23.6469 41.131 23.7746 40.9828 23.9028C40.7438 24.1091 40.4993 24.3064 40.2497 24.4996C40.0703 24.639 39.8961 24.7833 39.7238 24.9314C39.468 25.1507 39.2026 25.3556 38.9338 25.5587C38.7212 25.7196 38.5119 25.8838 38.3046 26.0514C37.9292 26.354 37.5425 26.6412 37.1556 26.9288C37.0381 27.0163 36.921 27.1042 36.804 27.1923C36.4374 27.4682 36.0697 27.7425 35.6979 28.0114C35.6535 28.0436 35.6535 28.0436 35.6081 28.0765C34.959 28.5435 34.2918 28.9854 33.6263 29.4286C33.584 29.4567 33.5418 29.4848 33.4982 29.5138C32.8535 29.9428 32.2067 30.366 31.5432 30.7657C31.5023 30.7904 31.4614 30.8151 31.4192 30.8406C30.3534 31.4818 29.2638 32.0756 28.1554 32.64C28.0891 32.674 28.0891 32.674 28.0215 32.7087C25.8689 33.8134 23.5643 34.6661 21.1966 35.1771C21.1627 35.1845 21.1287 35.1918 21.0938 35.1994C20.9118 35.2363 20.7412 35.2526 20.5557 35.2457C20.7155 35.1104 20.8733 35.0099 21.0603 34.9159C21.1141 34.8886 21.1678 34.8613 21.2232 34.8332C21.2657 34.8118 21.2657 34.8118 21.309 34.79C21.8951 34.4946 22.4693 34.182 23.0384 33.8552C23.1666 33.782 23.2953 33.7098 23.4242 33.6378C24.0783 33.2724 24.7224 32.8919 25.3627 32.5028C25.4116 32.4732 25.4604 32.4435 25.5107 32.413C26.4811 31.8225 27.4417 31.2168 28.3843 30.5828C28.472 30.5247 28.5598 30.4666 28.6476 30.4086C29.5926 29.779 30.5231 29.1281 31.4423 28.4615C31.5426 28.389 31.6433 28.3169 31.7441 28.245C32.2412 27.8896 32.7286 27.5227 33.2136 27.151C33.3223 27.0678 33.4311 26.9848 33.5401 26.9019C33.9195 26.6133 34.2964 26.3217 34.6706 26.0265C34.7478 25.9658 34.8253 25.9054 34.9028 25.8452C35.2323 25.5887 35.5562 25.3265 35.8778 25.0603C36.0804 24.8929 36.2855 24.7294 36.4934 24.5686C36.8099 24.323 37.1109 24.0609 37.4124 23.7973C37.5389 23.6874 37.667 23.5793 37.7953 23.4714C38.3882 22.973 38.3882 22.973 38.9684 22.46C39.1162 22.3258 39.2673 22.1986 39.4234 22.0743C39.6799 21.8673 39.9189 21.6437 40.1578 21.4167C40.3365 21.2471 40.5184 21.0826 40.7045 20.9212C40.83 20.8117 40.9523 20.699 41.0744 20.5857C41.1262 20.5378 41.178 20.4899 41.2298 20.4419C41.2558 20.4179 41.2818 20.3938 41.3086 20.369C41.4073 20.2776 41.5064 20.1866 41.6054 20.0955C42.2874 19.4728 42.2874 19.4728 42.9479 18.8277C43.0309 18.7463 43.1164 18.6706 43.2049 18.5953C43.4005 18.4254 43.5835 18.2453 43.7657 18.0612C43.7989 18.0278 43.8322 17.9944 43.8665 17.96C43.9717 17.8544 44.0768 17.7486 44.1818 17.6428C44.3205 17.5031 44.4594 17.3636 44.5983 17.2241C44.6296 17.1925 44.6608 17.1609 44.693 17.1284C44.8593 16.9615 45.0297 16.8044 45.2101 16.6529C45.2887 16.5847 45.3554 16.512 45.4209 16.4314C45.6609 16.15 45.928 15.8944 46.1905 15.6343C46.2442 15.5809 46.2978 15.5275 46.3515 15.4741C46.4818 15.3445 46.6122 15.2151 46.7427 15.0857Z" fill="#177DBD"/>
<path d="M125.35 14.8392C125.435 14.9161 125.52 14.9937 125.603 15.0722C125.701 15.1637 125.801 15.2492 125.904 15.3344C126.131 15.5313 126.31 15.7645 126.494 16.0001C126.527 16.0399 126.56 16.0796 126.594 16.1206C127.263 16.9553 127.655 17.9681 127.822 19.0172C127.834 19.0958 127.834 19.0958 127.847 19.176C127.945 19.9941 127.925 20.9146 127.73 21.7144C127.721 21.7508 127.712 21.7873 127.703 21.8248C127.501 22.6258 127.172 23.3808 126.677 24.0458C126.659 24.0702 126.641 24.0946 126.623 24.1197C125.507 25.6426 123.867 26.6983 121.996 27.0115C121.081 27.1449 120.069 27.1358 119.169 26.9258C119.135 26.9182 119.101 26.9106 119.067 26.9028C117.582 26.5593 116.13 25.6597 115.186 24.4572C115.168 24.434 115.149 24.4107 115.131 24.3868C113.965 22.8889 113.511 21.1379 113.719 19.257C113.955 17.3979 114.955 15.7907 116.418 14.6344C118.993 12.6771 122.878 12.7115 125.35 14.8392ZM116.697 16.2286C116.656 16.2649 116.656 16.2649 116.614 16.3019C115.595 17.2489 115.11 18.6661 115.052 20.0238C115.011 21.5351 115.563 22.8531 116.595 23.9545C117.596 24.9976 118.953 25.7055 120.418 25.7481C122.179 25.7748 123.555 25.3057 124.846 24.0915C124.873 24.0664 124.901 24.0413 124.929 24.0154C125.845 23.1498 126.444 21.8389 126.5 20.5809C126.542 18.9161 126.114 17.5222 124.953 16.2917C123.837 15.1625 122.399 14.5554 120.811 14.5286C119.19 14.545 117.878 15.1337 116.697 16.2286Z" fill="#177DBD"/>
<path d="M79.6143 13.3943C80.5358 13.3943 81.4574 13.3943 82.4069 13.3943C82.753 14.1119 83.0963 14.8292 83.4309 15.552C83.6247 15.9693 83.8228 16.3846 84.0207 16.8C84.0576 16.8775 84.0945 16.955 84.1314 17.0325C84.2816 17.3477 84.4317 17.663 84.5821 17.9782C84.6743 18.1716 84.7664 18.3652 84.8584 18.5588C84.8931 18.6317 84.9277 18.7044 84.9625 18.7772C85.0104 18.8775 85.0581 18.9778 85.1057 19.0782C85.1271 19.1228 85.1271 19.1228 85.1489 19.1683C85.2454 19.3724 85.2454 19.3724 85.2454 19.4743C85.2756 19.4743 85.3058 19.4743 85.337 19.4743C85.3527 19.4208 85.3683 19.3674 85.3845 19.3123C85.4836 19.016 85.6252 18.7399 85.7636 18.4605C85.8471 18.2918 85.9297 18.1227 86.0124 17.9536C86.0375 17.9024 86.0375 17.9024 86.063 17.8502C86.2112 17.5467 86.3544 17.241 86.4958 16.9343C86.7411 16.403 86.991 15.874 87.2426 15.3457C87.2603 15.3086 87.2779 15.2715 87.2961 15.2332C87.5882 14.6198 87.8819 14.0071 88.1754 13.3943C89.0819 13.3943 89.9884 13.3943 90.9223 13.3943C90.8856 13.5773 90.8583 13.6748 90.7744 13.8318C90.7531 13.8721 90.7318 13.9124 90.7098 13.954C90.6748 14.0192 90.6748 14.0192 90.639 14.0857C90.5886 14.1808 90.5383 14.2759 90.4879 14.3711C90.4615 14.4208 90.4351 14.4705 90.4079 14.5217C90.2745 14.7737 90.1435 15.0269 90.0124 15.28C89.9582 15.3845 89.9039 15.4891 89.8497 15.5936C89.8226 15.6456 89.7956 15.6977 89.7678 15.7513C89.6338 16.0095 89.4998 16.2676 89.3657 16.5257C89.3123 16.6286 89.2589 16.7314 89.2055 16.8343C89.0987 17.04 88.9918 17.2457 88.885 17.4514C88.8586 17.5024 88.8321 17.5533 88.8049 17.6058C88.7515 17.7085 88.6982 17.8112 88.6449 17.9139C88.5102 18.1733 88.3755 18.4327 88.2409 18.6921C87.7268 19.6827 87.7268 19.6827 87.5596 20.0009C87.5148 20.087 87.4706 20.1733 87.4272 20.2601C87.3141 20.4837 87.1969 20.6919 87.0492 20.8947C86.3589 21.9086 86.4894 23.0941 86.5078 24.2706C86.5123 24.6114 86.512 24.9523 86.5125 25.2932C86.5137 25.807 86.5211 26.3204 86.5273 26.8343C85.6963 26.8343 84.8654 26.8343 84.0093 26.8343C84.0166 26.4953 84.0239 26.1563 84.0315 25.807C84.0341 25.588 84.0364 25.3691 84.0377 25.1501C84.0399 24.8049 84.0429 24.4599 84.0521 24.1148C84.0906 22.6311 83.9812 21.527 83.1694 20.264C82.9527 19.9229 82.7744 19.5592 82.5901 19.2C82.555 19.1323 82.52 19.0646 82.4849 18.9969C82.4078 18.848 82.331 18.699 82.2543 18.5499C82.1707 18.3872 82.0868 18.2245 82.0029 18.0618C81.9864 18.0297 81.9699 17.9976 81.9528 17.9646C81.7907 17.6503 81.6271 17.3369 81.463 17.0236C81.2906 16.6942 81.1189 16.3643 80.9476 16.0343C80.921 15.983 80.8944 15.9318 80.867 15.879C80.7425 15.6392 80.6181 15.3993 80.4938 15.1594C80.4238 15.0243 80.3538 14.8893 80.2838 14.7543C80.2571 14.7028 80.2305 14.6513 80.203 14.5983C80.0295 14.264 79.8529 13.9315 79.6718 13.6013C79.6143 13.4857 79.6143 13.4857 79.6143 13.3943Z" fill="#121212"/>
<path d="M103.282 13.4401C109.637 13.4401 109.637 13.4401 110.928 14.4915C110.967 14.5234 111.007 14.5554 111.047 14.5883C111.84 15.263 112.305 16.2978 112.393 17.3258C112.463 18.5865 112.146 19.6601 111.294 20.6172C110.567 21.4228 109.605 21.7752 108.547 21.8972C108.908 22.39 109.273 22.8792 109.644 23.3641C109.852 23.6359 110.059 23.9089 110.264 24.1829C110.532 24.541 110.803 24.8972 111.075 25.2526C111.287 25.5306 111.498 25.8097 111.707 26.09C111.854 26.2862 112.004 26.4794 112.159 26.6697C112.21 26.7429 112.21 26.7429 112.21 26.8343C110.731 26.9635 110.731 26.9635 110.335 26.7676C110.129 26.5922 110.01 26.3687 109.891 26.1292C109.787 25.9322 109.65 25.7619 109.514 25.5858C109.461 25.5132 109.408 25.4405 109.354 25.3677C109.18 25.1306 109.001 24.8966 108.822 24.6629C108.563 24.3253 108.308 23.9849 108.057 23.6418C107.857 23.3703 107.653 23.1019 107.448 22.8343C107.133 22.4224 106.823 22.0064 106.516 21.5878C106.441 21.4853 106.365 21.383 106.289 21.2808C106.266 21.2488 106.242 21.2168 106.218 21.1838C106.173 21.1237 106.129 21.0636 106.084 21.0037C105.938 20.8052 105.938 20.8052 105.938 20.7543C105.983 20.7534 106.028 20.7525 106.074 20.7516C108.098 20.7598 108.098 20.7598 109.921 19.9772C109.951 19.9563 109.982 19.9354 110.014 19.9138C110.549 19.5087 110.864 18.7867 110.96 18.1422C111.047 17.2773 110.836 16.5406 110.34 15.8345C109.788 15.1617 108.977 14.8574 108.135 14.7658C106.978 14.6769 105.816 14.6927 104.656 14.6743C104.656 18.6871 104.656 22.6999 104.656 26.8343C104.202 26.8343 103.749 26.8343 103.282 26.8343C103.282 22.4142 103.282 17.9941 103.282 13.4401Z" fill="#177DBD"/>
<path d="M92.5244 13.4401C98.4099 13.4401 98.4099 13.4401 99.5748 14.0801C99.6201 14.1045 99.6654 14.1289 99.7121 14.154C100.252 14.469 100.701 14.9478 100.994 15.4972C101.015 15.5359 101.036 15.5746 101.057 15.6145C101.305 16.1132 101.432 16.6797 101.452 17.2343C101.454 17.2695 101.455 17.3047 101.457 17.341C101.488 18.4345 101.139 19.3967 100.399 20.2058C99.3509 21.2671 97.9173 21.4789 96.4903 21.4894C96.0982 21.4911 95.7062 21.4898 95.3142 21.4886C94.8468 21.4877 94.3794 21.4867 93.8979 21.4858C93.8979 23.2508 93.8979 25.0158 93.8979 26.8344C93.4446 26.8344 92.9914 26.8344 92.5244 26.8344C92.5244 22.4142 92.5244 17.9941 92.5244 13.4401ZM93.8979 14.6743C93.8979 16.4997 93.8979 18.3251 93.8979 20.2058C94.6754 20.21 94.6754 20.21 95.4687 20.2143C95.7114 20.2162 95.7114 20.2162 95.959 20.2181C97.1487 20.2235 98.3768 20.2209 99.316 19.3713C99.9148 18.7394 100.062 18.0135 100.047 17.1761C100.02 16.492 99.7349 15.9273 99.2373 15.4574C98.3968 14.7778 97.3791 14.6578 96.3345 14.6654C96.2715 14.6656 96.2086 14.6656 96.1457 14.6657C95.9162 14.6662 95.6868 14.6674 95.4573 14.6686C94.9427 14.6705 94.4281 14.6724 93.8979 14.6743Z" fill="#177DBD"/>
<path d="M54.7985 7.53016C54.9803 7.62515 55.0951 7.71646 55.1662 7.90855C55.1959 8.1298 55.2024 8.29734 55.0961 8.49802C54.955 8.67523 54.7965 8.80804 54.6197 8.94855C54.5677 8.99057 54.5677 8.99057 54.5147 9.03343C54.2643 9.23491 54.0107 9.43195 53.7548 9.62641C53.5995 9.74485 53.4456 9.86495 53.292 9.9857C53.2654 10.0067 53.2387 10.0276 53.2112 10.0492C53.1573 10.0917 53.1033 10.1341 53.0493 10.1766C52.9696 10.2393 52.8898 10.3018 52.8099 10.3643C52.5277 10.5851 52.2468 10.8073 51.9672 11.0314C51.2199 11.6293 51.2199 11.6293 50.83 11.6243C50.6215 11.5986 50.4991 11.4834 50.3649 11.3314C50.2688 11.0863 50.2696 10.8448 50.3735 10.6028C50.5622 10.3968 50.7795 10.228 51.0001 10.0571C50.9169 9.97409 50.7946 9.99961 50.6825 9.99712C50.3443 10.0012 50.0671 10.05 49.8067 10.2766C49.4533 10.656 49.3796 11.0616 49.3854 11.5686C49.4613 12.6757 50.1197 13.7138 50.9219 14.4507C51.4924 14.9302 52.217 15.3362 52.9796 15.3271C53.2653 15.2981 53.521 15.203 53.7441 15.0228C53.9432 14.7698 54.0483 14.576 54.1132 14.2628C54.0855 14.2887 54.0578 14.3146 54.0292 14.3412C53.795 14.5459 53.6184 14.6787 53.301 14.6852C53.0832 14.6622 52.963 14.5804 52.817 14.4228C52.6875 14.2313 52.675 14.079 52.694 13.8514C52.8211 13.5787 52.9812 13.4245 53.2176 13.2428C53.2501 13.2172 53.2827 13.1915 53.3161 13.1651C53.4135 13.0885 53.5115 13.0127 53.6096 12.9371C53.6367 12.9162 53.6637 12.8952 53.6916 12.8736C53.8133 12.7793 53.9355 12.6856 54.058 12.5923C54.2957 12.411 54.5301 12.2254 54.7651 12.0405C54.8448 11.9778 54.9247 11.9153 55.0045 11.8528C55.2857 11.6329 55.5657 11.4116 55.8443 11.1886C55.9287 11.1211 56.013 11.0538 56.0974 10.9864C56.1661 10.9315 56.2348 10.8766 56.3034 10.8216C56.3398 10.7928 56.3762 10.764 56.4138 10.7343C56.4442 10.71 56.4747 10.6858 56.506 10.6609C56.7078 10.5207 56.9455 10.5404 57.1806 10.56C57.3551 10.6206 57.427 10.7083 57.5182 10.8628C57.6132 11.0758 57.6245 11.2535 57.5469 11.4743C57.3534 11.8001 57.011 12.0146 56.7118 12.2367C56.5784 12.3367 56.4474 12.4397 56.3165 12.5428C56.29 12.5636 56.2636 12.5844 56.2364 12.6057C56.0964 12.7158 55.957 12.8264 55.8181 12.9377C55.7893 12.9606 55.7606 12.9836 55.731 13.0072C55.6731 13.0537 55.6155 13.1005 55.5582 13.1476C55.4208 13.2596 55.2848 13.3628 55.1328 13.4543C54.8973 13.601 54.7138 13.7267 54.6474 14.0112C54.6156 14.1986 54.599 14.3869 54.5826 14.5761C54.5588 14.7786 54.4837 14.9534 54.3879 15.1314C54.3742 15.1585 54.3604 15.1856 54.3463 15.2136C54.1814 15.4864 53.9001 15.6587 53.6483 15.8451C53.5041 15.9535 53.3639 16.0669 53.2234 16.18C53.1657 16.2261 53.1081 16.2723 53.0504 16.3184C52.9634 16.388 52.8764 16.4577 52.7895 16.5275C52.7044 16.5957 52.6191 16.6636 52.5338 16.7314C52.5085 16.7517 52.4833 16.7721 52.4573 16.793C51.9655 17.1823 51.4459 17.342 50.817 17.28C50.1016 17.1567 49.453 16.823 48.8941 16.3657C48.8529 16.332 48.8116 16.2983 48.7691 16.2636C47.9129 15.5255 47.1479 14.3633 47.0629 13.2114C47.0231 12.5353 47.0713 11.8825 47.5207 11.3371C47.7307 11.1453 47.9648 10.9835 48.1959 10.8183C48.3601 10.6981 48.5167 10.5692 48.6738 10.44C48.7342 10.3909 48.7947 10.3419 48.8551 10.2928C48.9718 10.1978 49.0873 10.1015 49.2021 10.0043C49.7678 9.53152 50.2774 9.45518 51.0001 9.50855C51.1407 9.53174 51.2738 9.56487 51.4121 9.59998C51.6342 9.58696 51.7708 9.46789 51.9357 9.33141C51.9929 9.28533 52.0501 9.23926 52.1072 9.1932C52.1363 9.16958 52.1653 9.14596 52.1952 9.12163C52.3297 9.01279 52.4661 8.90645 52.6024 8.79998C52.6558 8.75815 52.7092 8.71631 52.7625 8.67445C52.7889 8.65371 52.8154 8.63297 52.8426 8.61161C52.9234 8.5482 53.0041 8.48473 53.0848 8.42123C53.2442 8.29578 53.404 8.17066 53.5639 8.0457C53.5912 8.02425 53.6186 8.0028 53.6469 7.9807C53.7278 7.91742 53.8089 7.85438 53.89 7.79141C53.9374 7.75458 53.9847 7.71775 54.0335 7.6798C54.2749 7.50431 54.5056 7.42279 54.7985 7.53016ZM54.0474 7.98284C53.9588 8.11728 53.9334 8.20462 53.9301 8.3657C54.0035 8.52702 54.0556 8.58639 54.2048 8.6857C54.3744 8.70779 54.4578 8.69774 54.6082 8.61427C54.7414 8.46606 54.761 8.38131 54.7542 8.18284C54.6736 8.01848 54.6736 8.01848 54.5253 7.90855C54.3459 7.8622 54.2041 7.87852 54.0474 7.98284ZM56.4481 11.0628C56.3409 11.2234 56.3338 11.2852 56.3565 11.4743C56.4506 11.6433 56.5096 11.6928 56.6942 11.7543C56.8661 11.7611 56.8661 11.7611 57.0175 11.66C57.143 11.5113 57.143 11.5113 57.1634 11.3343C57.1482 11.1575 57.1482 11.1575 57.0604 11.0428C56.8305 10.8918 56.6646 10.8947 56.4481 11.0628Z" fill="#177DBD"/>
<path d="M56.5051 7.61996C56.6634 7.7091 56.7685 7.79362 56.8599 7.95425C56.9271 8.23158 56.9121 8.38513 56.7683 8.63996C56.5431 8.95594 56.2335 9.17304 55.9272 9.40574C55.8248 9.48416 55.7242 9.56474 55.6238 9.64568C55.6389 9.67585 55.654 9.70602 55.6695 9.73711C55.6949 9.71753 55.7202 9.69796 55.7463 9.67779C55.8635 9.58764 55.9811 9.49809 56.0987 9.40854C56.1386 9.37774 56.1784 9.34695 56.2195 9.31523C56.9279 8.77815 56.9279 8.77815 57.3649 8.80657C57.6056 8.84996 57.7315 8.99524 57.8671 9.18853C57.9461 9.4252 57.9442 9.6513 57.8585 9.88568C57.7502 10.0497 57.6334 10.1966 57.455 10.2857C57.3805 10.2828 57.306 10.2767 57.2318 10.2685C57.1725 10.2623 57.1725 10.2623 57.112 10.256C56.9972 10.24 56.9972 10.24 56.9099 10.2162C56.5106 10.1247 56.0654 10.1589 55.7153 10.3771C55.6209 10.4598 55.5367 10.5473 55.4515 10.6394C55.3325 10.7595 55.2034 10.8614 55.0687 10.9628C55.0306 10.9915 55.0306 10.9915 54.9918 11.0208C54.9391 11.0604 54.8865 11.1 54.8338 11.1396C54.701 11.24 54.57 11.3428 54.4392 11.4457C54.4127 11.4665 54.3862 11.4873 54.3589 11.5087C54.1326 11.6867 53.9078 11.8665 53.683 12.0464C53.438 12.2424 53.1916 12.4364 52.9445 12.6296C52.8362 12.7143 52.7282 12.7993 52.6204 12.8846C52.4872 12.99 52.3532 13.0946 52.219 13.1987C52.1476 13.2545 52.0771 13.3114 52.0067 13.3684C51.7905 13.537 51.6084 13.6764 51.3264 13.6819C51.1077 13.6519 50.939 13.5788 50.7974 13.4064C50.685 13.2143 50.6478 13.0355 50.6893 12.8161C50.7989 12.4869 51.1387 12.2565 51.409 12.06C51.478 12.0086 51.5469 11.9571 51.6157 11.9055C51.6677 11.8666 51.6677 11.8666 51.7208 11.8269C51.8831 11.7035 52.041 11.5749 52.1987 11.4457C52.5024 11.1975 52.8094 10.954 53.1187 10.7128C53.2251 10.6297 53.3314 10.5463 53.4376 10.4629C53.4907 10.4212 53.5439 10.3795 53.5971 10.3378C53.7355 10.2294 53.8736 10.1207 54.0114 10.0116C54.0541 9.9778 54.0541 9.9778 54.0978 9.94336C54.1518 9.90064 54.2059 9.85785 54.2598 9.81496C54.703 9.46537 54.703 9.46537 54.9399 9.40854C55.147 9.33723 55.2127 9.20682 55.3074 9.01728C55.4094 8.76502 55.4081 8.51028 55.4145 8.24166C55.4233 8.03442 55.4434 7.89327 55.578 7.72568C55.864 7.50468 56.1801 7.47275 56.5051 7.61996ZM55.8069 8.04568C55.7408 8.17773 55.7438 8.26495 55.7611 8.41139C55.8588 8.53328 55.9395 8.61631 56.0816 8.68282C56.241 8.68779 56.3566 8.62829 56.4822 8.53425C56.5606 8.42851 56.579 8.36045 56.5852 8.22854C56.5145 8.0486 56.4731 7.97106 56.3105 7.86282C56.0769 7.8324 55.9741 7.88345 55.8069 8.04568ZM56.8599 9.32568C56.8217 9.48568 56.8217 9.48568 56.8599 9.64568C56.9785 9.81445 57.0449 9.86642 57.249 9.90282C57.4531 9.86642 57.5195 9.81445 57.6381 9.64568C57.6763 9.48568 57.6763 9.48568 57.6381 9.32568C57.5195 9.15691 57.4531 9.10493 57.249 9.06853C57.0449 9.10493 56.9785 9.15691 56.8599 9.32568ZM54.525 9.96568C54.4295 10.087 54.4335 10.1516 54.4363 10.3085C54.468 10.4711 54.468 10.4711 54.5736 10.5828C54.7302 10.6627 54.8181 10.6713 54.9885 10.6394C55.0901 10.6064 55.0901 10.6064 55.1917 10.4828C55.2678 10.3077 55.2741 10.2362 55.2117 10.0571C55.1147 9.92435 55.0512 9.88145 54.8941 9.83139C54.7241 9.82793 54.6565 9.85992 54.525 9.96568Z" fill="#177DBD"/>
<path d="M101.595 30.2303C101.789 30.3826 101.883 30.5307 101.955 30.7657C101.955 30.8562 101.955 30.9467 101.955 31.04C101.743 31.04 101.532 31.04 101.314 31.04C101.284 30.9495 101.253 30.859 101.222 30.7657C101.06 30.6679 100.906 30.6607 100.719 30.66C100.672 30.6592 100.626 30.6584 100.578 30.6577C100.425 30.6766 100.339 30.7204 100.215 30.8114C100.15 30.9413 100.155 31.0333 100.169 31.1771C100.271 31.3073 100.332 31.3531 100.49 31.4057C100.625 31.4128 100.759 31.4175 100.894 31.4202C100.933 31.4211 100.973 31.4221 101.013 31.423C101.139 31.426 101.265 31.4287 101.391 31.4314C101.476 31.4334 101.562 31.4354 101.647 31.4374C101.857 31.4423 102.066 31.4469 102.275 31.4514C102.275 31.6324 102.275 31.8135 102.275 32C102.185 32 102.094 32 102.001 32C102.006 32.0962 102.012 32.1924 102.018 32.2886C102.023 32.3689 102.023 32.3689 102.027 32.4509C102.037 32.6014 102.037 32.6014 102.138 32.7314C102.183 32.7465 102.229 32.7616 102.275 32.7771C102.275 33.0034 102.275 33.2297 102.275 33.4628C101.944 33.446 101.944 33.446 101.775 33.3057C101.68 33.1886 101.68 33.1886 101.634 33.0971C101.603 33.132 101.572 33.1669 101.54 33.2028C101.278 33.4425 101.028 33.4874 100.684 33.4828C100.63 33.4823 100.63 33.4823 100.575 33.4818C100.226 33.472 99.8718 33.4219 99.6199 33.1571C99.453 32.881 99.3495 32.6004 99.391 32.2743C99.4706 32.0547 99.5573 31.8998 99.7573 31.7714C99.7573 31.7412 99.7573 31.7111 99.7573 31.68C99.7289 31.6517 99.7006 31.6234 99.6714 31.5943C99.503 31.4261 99.4678 31.2875 99.4626 31.0514C99.4683 30.7132 99.5824 30.5255 99.8202 30.2943C100.335 29.9636 101.058 29.9074 101.595 30.2303ZM100.129 32.1943C100.041 32.3312 100.056 32.4366 100.078 32.5943C100.194 32.7387 100.268 32.8098 100.444 32.8686C100.779 32.8959 101.019 32.878 101.298 32.6771C101.392 32.551 101.373 32.4431 101.368 32.2886C101.367 32.2346 101.366 32.1807 101.364 32.1252C101.362 32.0632 101.362 32.0632 101.36 32C101.22 31.9963 101.081 31.9936 100.942 31.9914C100.903 31.9903 100.863 31.9891 100.823 31.9879C100.542 31.9847 100.366 32.0367 100.129 32.1943Z" fill="#121212"/>
<path d="M112.962 31.0972C113.077 31.1756 113.17 31.2566 113.263 31.36C113.303 31.3242 113.344 31.2884 113.386 31.2515C113.618 31.0468 113.845 31.0224 114.145 31.0284C114.324 31.0451 114.434 31.0896 114.59 31.1772C114.631 31.1998 114.672 31.2224 114.713 31.2457C115.074 31.6353 115.025 32.1781 115.014 32.6715C115.013 32.7441 115.012 32.8166 115.011 32.8892C115.009 33.0652 115.006 33.2412 115.002 33.4172C114.806 33.4172 114.61 33.4172 114.407 33.4172C114.405 33.3252 114.403 33.2332 114.4 33.1384C114.398 33.0484 114.395 32.9584 114.393 32.8683C114.391 32.8062 114.389 32.7441 114.388 32.682C114.386 32.5922 114.383 32.5025 114.38 32.4127C114.379 32.3588 114.378 32.305 114.376 32.2495C114.36 32.0788 114.329 31.9325 114.27 31.7715C114.098 31.6572 114.015 31.6555 113.812 31.68C113.667 31.7962 113.596 31.8696 113.537 32.0457C113.53 32.1501 113.526 32.2546 113.523 32.3591C113.522 32.3894 113.521 32.4196 113.52 32.4508C113.517 32.5472 113.514 32.6436 113.512 32.74C113.51 32.8055 113.508 32.8709 113.506 32.9364C113.501 33.0966 113.496 33.2569 113.492 33.4172C113.295 33.4172 113.099 33.4172 112.896 33.4172C112.894 33.3219 112.892 33.2266 112.89 33.1284C112.887 33.0352 112.885 32.942 112.882 32.8488C112.88 32.7845 112.879 32.7202 112.877 32.6558C112.875 32.5629 112.872 32.4699 112.87 32.377C112.868 32.3212 112.867 32.2654 112.865 32.208C112.85 32.0355 112.82 31.888 112.759 31.7257C112.59 31.6694 112.431 31.6535 112.255 31.68C112.144 31.7655 112.089 31.83 112.027 31.9543C112.019 32.0643 112.015 32.1732 112.012 32.2832C112.011 32.3156 112.01 32.3479 112.009 32.3812C112.006 32.4846 112.004 32.5881 112.001 32.6915C111.999 32.7615 111.997 32.8316 111.995 32.9016C111.99 33.0735 111.985 33.2453 111.981 33.4172C111.769 33.4172 111.558 33.4172 111.34 33.4172C111.34 32.6478 111.34 31.8784 111.34 31.0857C111.536 31.0857 111.733 31.0857 111.935 31.0857C111.95 31.131 111.965 31.1763 111.981 31.2229C112.023 31.1927 112.066 31.1625 112.11 31.1315C112.378 30.9786 112.678 30.9941 112.962 31.0972Z" fill="#121212"/>
<path d="M87.8086 30.08C88.005 30.08 88.2014 30.08 88.4037 30.08C88.4495 30.1257 88.4495 30.1257 88.455 30.2561C88.4549 30.3145 88.4548 30.3729 88.4547 30.433C88.4547 30.4651 88.4547 30.4972 88.4547 30.5303C88.4547 30.6369 88.4543 30.7435 88.454 30.8501C88.4539 30.9239 88.4538 30.9976 88.4538 31.0713C88.4536 31.2657 88.4532 31.4602 88.4527 31.6546C88.4522 31.8528 88.452 32.0511 88.4518 32.2493C88.4513 32.6386 88.4505 33.0278 88.4495 33.4171C88.2531 33.4171 88.0567 33.4171 87.8544 33.4171C87.8544 33.3568 87.8544 33.2964 87.8544 33.2342C87.8305 33.2502 87.8066 33.2662 87.7819 33.2826C87.4693 33.4756 87.1826 33.5491 86.8162 33.4882C86.5224 33.4107 86.2675 33.298 86.0916 33.043C85.8689 32.6571 85.8286 32.2771 85.9069 31.8351C85.9904 31.5499 86.1371 31.3222 86.3927 31.1641C86.7381 30.9961 87.0584 30.9655 87.4314 31.0462C87.5339 31.0857 87.5339 31.0857 87.8086 31.2685C87.8086 30.8763 87.8086 30.4841 87.8086 30.08ZM86.7098 31.7257C86.5496 31.916 86.4852 32.071 86.4809 32.32C86.5235 32.5205 86.5849 32.6532 86.7327 32.7971C86.9268 32.9183 87.0788 32.9331 87.305 32.9142C87.4879 32.8487 87.6003 32.7662 87.7142 32.6085C87.7911 32.369 87.8076 32.1516 87.7084 31.9171C87.5549 31.7321 87.4339 31.6289 87.1934 31.5914C86.9957 31.5783 86.8739 31.6076 86.7098 31.7257Z" fill="#121212"/>
<path d="M123.015 30.08C123.211 30.08 123.407 30.08 123.61 30.08C123.656 30.1257 123.656 30.1257 123.661 30.2561C123.661 30.3145 123.661 30.3729 123.661 30.433C123.661 30.4651 123.661 30.4972 123.661 30.5303C123.661 30.6369 123.66 30.7435 123.66 30.8501C123.66 30.9239 123.66 30.9976 123.66 31.0713C123.66 31.2657 123.659 31.4602 123.659 31.6546C123.658 31.8528 123.658 32.0511 123.658 32.2493C123.657 32.6386 123.657 33.0278 123.656 33.4171C123.459 33.4171 123.263 33.4171 123.06 33.4171C123.06 33.3568 123.06 33.2964 123.06 33.2342C123.037 33.2502 123.013 33.2662 122.988 33.2826C122.676 33.4755 122.387 33.5514 122.021 33.4866C121.616 33.3767 121.404 33.2063 121.192 32.8473C121.018 32.4797 121.053 32.0242 121.182 31.6475C121.314 31.3537 121.509 31.1887 121.808 31.0728C122.123 30.9768 122.429 30.9659 122.74 31.0857C122.831 31.146 122.921 31.2064 123.015 31.2685C123.015 30.8763 123.015 30.4841 123.015 30.08ZM121.87 31.7714C121.744 31.9304 121.695 32.072 121.687 32.2742C121.729 32.4885 121.783 32.6442 121.939 32.8C122.134 32.9169 122.286 32.933 122.511 32.9142C122.675 32.8525 122.801 32.7644 122.92 32.6342C123.008 32.3959 123.012 32.1498 122.914 31.9142C122.761 31.734 122.639 31.6288 122.402 31.5885C122.17 31.5723 122.054 31.6319 121.87 31.7714Z" fill="#121212"/>
<path d="M91.7002 30.08C91.8966 30.08 92.093 30.08 92.2954 30.08C92.3105 30.4722 92.3256 30.8644 92.3411 31.2685C92.5224 31.1554 92.5224 31.1554 92.7074 31.04C93.0681 30.9628 93.3999 30.9921 93.7289 31.1657C94.0322 31.4192 94.1972 31.6776 94.2328 32.07C94.2463 32.5165 94.1776 32.7901 93.9349 33.1571C93.6728 33.4072 93.3726 33.4918 93.015 33.5133C92.7885 33.5046 92.568 33.4536 92.3984 33.2978C92.3795 33.2768 92.3606 33.2559 92.3411 33.2342C92.3109 33.2946 92.2807 33.3549 92.2496 33.4171C92.0683 33.4171 91.887 33.4171 91.7002 33.4171C91.7002 32.3158 91.7002 31.2146 91.7002 30.08ZM92.4642 31.84C92.3323 32.035 92.3101 32.2268 92.3411 32.4571C92.4509 32.6764 92.5794 32.8046 92.799 32.9142C93.0029 32.9542 93.1326 32.9314 93.3169 32.8342C93.4744 32.7026 93.5581 32.6059 93.623 32.4114C93.6412 32.1714 93.6169 32.0204 93.4857 31.8171C93.3246 31.6421 93.1763 31.5997 92.946 31.5841C92.7299 31.5936 92.6068 31.686 92.4642 31.84Z" fill="#121212"/>
<path d="M132.263 9.87427C132.904 9.87427 132.904 9.87427 133.101 10.0657C133.159 10.1532 133.215 10.2419 133.27 10.3314C133.326 10.4135 133.384 10.4948 133.442 10.5761C133.523 10.6917 133.603 10.8086 133.682 10.9257C133.829 10.7933 133.936 10.6642 134.039 10.4948C134.062 10.4584 134.085 10.422 134.109 10.3845C134.156 10.3093 134.202 10.2329 134.245 10.1556C134.317 10.0462 134.317 10.0462 134.506 9.87427C134.733 9.87427 134.959 9.87427 135.193 9.87427C135.193 10.7643 135.193 11.6544 135.193 12.5714C134.996 12.5714 134.8 12.5714 134.598 12.5714C134.582 11.9831 134.567 11.3947 134.552 10.7886C134.448 10.929 134.344 11.0695 134.237 11.2143C134.204 11.2584 134.172 11.3025 134.138 11.3479C134.112 11.3828 134.087 11.4177 134.06 11.4537C134.034 11.4894 134.007 11.5251 133.98 11.5618C133.925 11.638 133.872 11.7159 133.819 11.7943C133.713 11.8214 133.713 11.8214 133.59 11.7943C133.503 11.6959 133.435 11.6064 133.364 11.4971C133.201 11.2553 133.033 11.0224 132.858 10.7886C132.843 11.3769 132.828 11.9652 132.812 12.5714C132.631 12.5714 132.449 12.5714 132.263 12.5714C132.263 11.6814 132.263 10.7913 132.263 9.87427Z" fill="#121212"/>
<path d="M63.04 30.08C63.8257 30.08 64.6113 30.08 65.4207 30.08C65.4207 30.3062 65.4207 30.5325 65.4207 30.7657C64.8466 30.7657 64.2725 30.7657 63.681 30.7657C63.681 31.0372 63.681 31.3088 63.681 31.5885C64.2249 31.5885 64.7688 31.5885 65.3291 31.5885C65.3291 31.7997 65.3291 32.0109 65.3291 32.2285C64.7852 32.2285 64.2413 32.2285 63.681 32.2285C63.681 32.6208 63.681 33.013 63.681 33.4171C63.4695 33.4171 63.258 33.4171 63.04 33.4171C63.04 32.3158 63.04 31.2146 63.04 30.08Z" fill="#121212"/>
<path d="M90.5553 31.1771C90.5855 31.2073 90.6157 31.2375 90.6468 31.2686C90.6619 31.2082 90.6771 31.1479 90.6926 31.0857C90.889 31.0857 91.0854 31.0857 91.2878 31.0857C91.2878 31.8551 91.2878 32.6244 91.2878 33.4171C91.0914 33.4171 90.895 33.4171 90.6926 33.4171C90.67 33.3266 90.67 33.3266 90.6468 33.2343C90.6138 33.2626 90.5807 33.2908 90.5467 33.32C90.2726 33.5268 90.019 33.5378 89.6854 33.5086C89.4062 33.4529 89.198 33.3511 88.9987 33.1428C88.7527 32.7405 88.7201 32.3247 88.7698 31.8628C88.8459 31.5895 88.9945 31.3591 89.221 31.1857C89.6476 30.9498 90.1365 30.9221 90.5553 31.1771ZM89.4909 31.84C89.3571 32.0308 89.3462 32.1824 89.365 32.4114C89.4262 32.5926 89.5047 32.7352 89.6425 32.8686C89.8572 32.9415 90.057 32.9536 90.2806 32.9143C90.4682 32.8174 90.5729 32.6938 90.6697 32.5086C90.71 32.2574 90.6862 32.0743 90.5667 31.8486C90.4366 31.6933 90.3428 31.6027 90.1366 31.5757C89.8464 31.5642 89.6886 31.6206 89.4909 31.84Z" fill="#121212"/>
<path d="M76.5463 31.1771C76.5765 31.2073 76.6067 31.2375 76.6378 31.2686C76.6529 31.2082 76.668 31.1479 76.6836 31.0857C76.88 31.0857 77.0764 31.0857 77.2788 31.0857C77.2788 31.8551 77.2788 32.6245 77.2788 33.4171C77.0824 33.4171 76.886 33.4171 76.6836 33.4171C76.661 33.3266 76.661 33.3266 76.6378 33.2343C76.6048 33.2626 76.5717 33.2909 76.5377 33.32C76.2539 33.5341 75.9764 33.5445 75.6306 33.5086C75.321 33.4187 75.0547 33.2629 74.8867 32.9829C74.7014 32.6128 74.6896 32.1181 74.8007 31.7198C74.9404 31.4202 75.1257 31.2013 75.4384 31.0829C75.8412 30.9684 76.1804 30.9544 76.5463 31.1771ZM75.5391 31.7257C75.383 31.9307 75.3231 32.0946 75.335 32.3529C75.3717 32.5355 75.4598 32.6858 75.5849 32.8229C75.7944 32.9591 76.0309 32.9474 76.2716 32.9143C76.4549 32.8353 76.5555 32.6916 76.6378 32.5143C76.7068 32.2987 76.6735 32.1165 76.5921 31.9086C76.4884 31.7464 76.402 31.6618 76.2258 31.5886C75.9717 31.5531 75.7512 31.573 75.5391 31.7257Z" fill="#121212"/>
<path d="M67.4349 31.1771C67.4652 31.2073 67.4954 31.2375 67.5265 31.2686C67.5416 31.2082 67.5567 31.1479 67.5723 31.0857C67.7687 31.0857 67.9651 31.0857 68.1674 31.0857C68.1674 31.8551 68.1674 32.6245 68.1674 33.4171C67.971 33.4171 67.7746 33.4171 67.5723 33.4171C67.5496 33.3266 67.5496 33.3266 67.5265 33.2343C67.4935 33.2626 67.4604 33.2909 67.4264 33.32C67.1426 33.5341 66.8651 33.5445 66.5193 33.5086C66.2097 33.4187 65.9434 33.2629 65.7754 32.9829C65.5901 32.6128 65.5783 32.1181 65.6893 31.7198C65.8291 31.4202 66.0144 31.2013 66.3271 31.0829C66.7298 30.9684 67.069 30.9544 67.4349 31.1771ZM66.382 31.7714C66.2277 31.9851 66.2046 32.2018 66.2446 32.4571C66.3041 32.6228 66.3931 32.7446 66.5222 32.8657C66.7533 32.9492 67.0186 32.9758 67.2491 32.8757C67.4364 32.737 67.5371 32.5457 67.5723 32.32C67.5581 32.062 67.486 31.8626 67.2976 31.68C66.982 31.493 66.6624 31.5586 66.382 31.7714Z" fill="#121212"/>
<path d="M120.468 31.2314C120.828 31.616 120.817 31.9725 120.817 32.5029C120.228 32.5029 119.639 32.5029 119.032 32.5029C119.178 32.7591 119.178 32.7591 119.398 32.8686C119.708 32.9018 119.949 32.8885 120.222 32.7314C120.376 32.7487 120.45 32.8059 120.554 32.9171C120.59 32.9547 120.59 32.9547 120.626 32.993C120.644 33.0123 120.662 33.0316 120.68 33.0514C120.613 33.2255 120.534 33.2782 120.368 33.3571C120.329 33.3762 120.29 33.3952 120.25 33.4148C119.839 33.5802 119.41 33.545 119.006 33.3802C118.707 33.2344 118.561 33.0356 118.437 32.7314C118.337 32.4333 118.341 32.0032 118.442 31.7029C118.641 31.3316 118.875 31.1326 119.278 31.0057C119.693 30.9663 120.119 30.9723 120.468 31.2314ZM119.106 31.8C119.027 31.8929 119.027 31.8929 119.032 31.9543C119.425 31.9543 119.817 31.9543 120.222 31.9543C120.081 31.6584 120.081 31.6584 119.81 31.5429C119.509 31.5106 119.311 31.5743 119.106 31.8Z" fill="#121212"/>
<path d="M97.571 31.2006C97.825 31.4062 97.9279 31.5854 98.0039 31.9029C98.0224 32.0873 98.0315 32.2721 98.0182 32.4572C97.9724 32.5029 97.9724 32.5029 97.8076 32.5081C97.7342 32.5081 97.6608 32.5078 97.5874 32.5074C97.5489 32.5073 97.5103 32.5072 97.4706 32.5072C97.347 32.5069 97.2234 32.5063 97.0997 32.5058C97.0161 32.5055 96.9325 32.5053 96.8489 32.5051C96.6435 32.5046 96.4381 32.5038 96.2327 32.5029C96.3357 32.684 96.4054 32.7814 96.599 32.8686C96.9101 32.9113 97.1476 32.8827 97.4231 32.7315C97.5733 32.7843 97.6557 32.867 97.755 32.9886C97.7788 33.0175 97.8027 33.0464 97.8272 33.0761C97.8538 33.1092 97.8538 33.1092 97.8809 33.1429C97.5389 33.4237 97.1557 33.5388 96.7122 33.5213C96.3258 33.478 96.0276 33.3545 95.7749 33.0515C95.5377 32.6505 95.5223 32.2713 95.5918 31.8172C95.679 31.5124 95.8815 31.3058 96.1412 31.1315C96.5861 30.902 97.1549 30.919 97.571 31.2006ZM96.3243 31.7258C96.2941 31.8012 96.2639 31.8766 96.2327 31.9543C96.6104 31.9543 96.9881 31.9543 97.3773 31.9543C97.3233 31.7387 97.2897 31.7015 97.1026 31.5886C96.82 31.5042 96.5538 31.529 96.3243 31.7258Z" fill="#121212"/>
<path d="M83.0466 31.1559C83.3047 31.3446 83.5345 31.588 83.5959 31.9085C83.6073 31.9642 83.6186 32.0198 83.6303 32.0771C83.6685 32.4547 83.5816 32.7946 83.3563 33.0998C83.1422 33.3348 82.8611 33.4779 82.543 33.5085C82.1532 33.5128 81.8365 33.4623 81.5386 33.2027C81.2826 32.939 81.1708 32.6396 81.1523 32.2743C81.1709 31.8923 81.3032 31.5353 81.5815 31.2685C81.9844 30.9589 82.596 30.9164 83.0466 31.1559ZM81.9106 31.8171C81.7822 32.0331 81.7831 32.2589 81.8105 32.5028C81.9095 32.7044 82.013 32.8287 82.2225 32.9143C82.4417 32.9386 82.5423 32.937 82.7404 32.84C82.8986 32.7004 82.9831 32.5798 83.0137 32.3678C83.0236 32.1519 82.9847 32.0008 82.8634 31.8171C82.7188 31.6868 82.6131 31.5949 82.4171 31.5771C82.2038 31.5935 82.0551 31.6579 81.9106 31.8171Z" fill="#121212"/>
<path d="M108.176 31.0943C108.46 31.2585 108.615 31.4709 108.731 31.7715C108.779 31.9603 108.783 32.1381 108.782 32.3324C108.782 32.3635 108.782 32.3946 108.782 32.4267C108.781 32.5254 108.781 32.6242 108.78 32.7229C108.78 32.7901 108.78 32.8574 108.779 32.9246C108.779 33.0888 108.778 33.253 108.777 33.4172C108.566 33.4172 108.354 33.4172 108.136 33.4172C108.134 33.2628 108.134 33.2628 108.131 33.1052C108.129 33.005 108.127 32.9049 108.124 32.8047C108.123 32.7353 108.121 32.666 108.12 32.5966C108.119 32.4966 108.117 32.3966 108.114 32.2966C108.113 32.2366 108.112 32.1765 108.11 32.1146C108.09 31.9469 108.055 31.8592 107.953 31.7257C107.812 31.6398 107.73 31.6341 107.564 31.64C107.385 31.6848 107.301 31.7294 107.175 31.8629C107.095 32.0598 107.07 32.2323 107.064 32.444C107.063 32.5008 107.061 32.5577 107.059 32.6163C107.057 32.7044 107.057 32.7044 107.055 32.7943C107.052 32.884 107.052 32.884 107.049 32.9756C107.045 33.1228 107.041 33.27 107.038 33.4172C106.841 33.4172 106.645 33.4172 106.442 33.4172C106.442 32.6478 106.442 31.8784 106.442 31.0857C106.624 31.0857 106.805 31.0857 106.992 31.0857C107.022 31.1461 107.052 31.2064 107.083 31.2686C107.126 31.2394 107.168 31.2101 107.212 31.18C107.494 30.9981 107.86 30.9713 108.176 31.0943Z" fill="#121212"/>
<path d="M103.695 31.0857C103.891 31.0857 104.088 31.0857 104.29 31.0857C104.291 31.1272 104.291 31.1687 104.292 31.2114C104.295 31.3663 104.298 31.5212 104.302 31.6761C104.303 31.743 104.305 31.8098 104.306 31.8767C104.307 31.9732 104.31 32.0696 104.312 32.1661C104.313 32.224 104.315 32.2819 104.316 32.3416C104.337 32.5153 104.383 32.628 104.473 32.7771C104.637 32.8957 104.779 32.8746 104.971 32.8475C105.11 32.8122 105.17 32.7568 105.251 32.64C105.34 32.4565 105.356 32.3019 105.362 32.0991C105.364 32.04 105.365 31.9809 105.367 31.9201C105.369 31.8581 105.37 31.7962 105.371 31.7343C105.373 31.6714 105.375 31.6086 105.377 31.5458C105.381 31.3924 105.385 31.2391 105.389 31.0857C105.585 31.0857 105.781 31.0857 105.984 31.0857C105.984 31.8551 105.984 32.6244 105.984 33.4171C105.803 33.4171 105.621 33.4171 105.434 33.4171C105.434 33.3417 105.434 33.2663 105.434 33.1886C105.41 33.2045 105.385 33.2205 105.359 33.2369C105.326 33.2577 105.294 33.2785 105.26 33.3C105.211 33.331 105.211 33.331 105.162 33.3627C104.919 33.5038 104.653 33.4876 104.381 33.4628C104.136 33.3903 103.969 33.2694 103.832 33.0514C103.706 32.8037 103.676 32.6158 103.681 32.3402C103.681 32.3041 103.682 32.268 103.682 32.2308C103.683 32.1167 103.684 32.0027 103.686 31.8886C103.687 31.8107 103.687 31.7329 103.688 31.6551C103.69 31.4653 103.692 31.2755 103.695 31.0857Z" fill="#121212"/>
<path d="M70.4579 31.2686C70.4347 31.4687 70.3124 31.5802 70.1832 31.7257C70.1482 31.7116 70.1133 31.6974 70.0773 31.6828C69.8947 31.6108 69.758 31.5823 69.5623 31.5828C69.4956 31.5827 69.4956 31.5827 69.4276 31.5825C69.3133 31.581 69.3133 31.581 69.2218 31.6343C69.2369 31.7097 69.252 31.7851 69.2675 31.8628C69.2958 31.8684 69.3241 31.8739 69.3532 31.8796C69.4346 31.8957 69.5159 31.912 69.5971 31.9286C69.6772 31.9446 69.7574 31.96 69.8378 31.9743C70.1019 32.0246 70.3028 32.1043 70.4858 32.3123C70.5966 32.4848 70.5999 32.6673 70.5952 32.8686C70.5218 33.1317 70.4075 33.2634 70.1832 33.4171C69.9734 33.5031 69.7784 33.5262 69.5537 33.5257C69.5055 33.5256 69.5055 33.5256 69.4562 33.5255C69.078 33.5166 68.7692 33.4037 68.4893 33.1428C68.517 32.9987 68.5644 32.9056 68.6524 32.7886C68.6732 32.7605 68.694 32.7325 68.7155 32.7036C68.7395 32.6721 68.7395 32.6721 68.7639 32.64C68.8054 32.6639 68.8054 32.6639 68.8476 32.6884C68.8842 32.7092 68.9208 32.73 68.9585 32.7514C68.9946 32.7721 69.0308 32.7928 69.068 32.8141C69.2361 32.8989 69.3807 32.9213 69.568 32.9228C69.6205 32.9238 69.6205 32.9238 69.674 32.9248C69.7849 32.9203 69.7849 32.9203 69.9085 32.8228C69.9419 32.7057 69.9419 32.7057 69.9543 32.5943C69.899 32.5865 69.8438 32.5787 69.7869 32.5707C69.713 32.5595 69.639 32.5484 69.5651 32.5371C69.5289 32.5321 69.4927 32.5271 69.4553 32.522C69.1426 32.4733 68.8741 32.387 68.6495 32.1571C68.5361 31.8977 68.5306 31.6281 68.6323 31.3628C69.1209 30.8263 69.8941 30.9167 70.4579 31.2686Z" fill="#121212"/>
<path d="M81.3075 30.2172C81.2514 30.4024 81.1839 30.5574 81.0786 30.72C81.0474 30.704 81.0162 30.688 80.9841 30.6714C80.8172 30.6182 80.6993 30.641 80.5292 30.6743C80.4839 30.8101 80.4385 30.9458 80.3918 31.0857C80.6185 31.0857 80.8451 31.0857 81.0786 31.0857C81.0786 31.2668 81.0786 31.4478 81.0786 31.6343C80.8519 31.6343 80.6253 31.6343 80.3918 31.6343C80.3918 32.2226 80.3918 32.811 80.3918 33.4172C80.1954 33.4172 79.999 33.4172 79.7967 33.4172C79.7967 32.8288 79.7967 32.2405 79.7967 31.6343C79.6456 31.6343 79.4945 31.6343 79.3389 31.6343C79.3389 31.4533 79.3389 31.2722 79.3389 31.0857C79.4899 31.0857 79.641 31.0857 79.7967 31.0857C79.7929 31.0254 79.7891 30.965 79.7852 30.9029C79.7863 30.6687 79.839 30.4968 79.9798 30.3086C80.3836 29.9316 80.842 29.971 81.3075 30.2172Z" fill="#121212"/>
<path d="M79.3847 30.1714C79.4305 30.3085 79.4305 30.3085 79.3849 30.4119C79.3631 30.4485 79.3414 30.4851 79.3189 30.5228C79.2973 30.5598 79.2756 30.5967 79.2533 30.6348C79.2362 30.6629 79.2192 30.691 79.2016 30.72C79.1705 30.7039 79.1393 30.6879 79.1072 30.6714C78.9369 30.6171 78.8247 30.632 78.6522 30.6743C78.5394 30.8229 78.5394 30.8229 78.5149 31.0857C78.7415 31.0857 78.9681 31.0857 79.2016 31.0857C79.2016 31.2667 79.2016 31.4477 79.2016 31.6343C78.975 31.6343 78.7484 31.6343 78.5149 31.6343C78.5149 32.2226 78.5149 32.8109 78.5149 33.4171C78.3185 33.4171 78.1221 33.4171 77.9197 33.4171C77.9197 32.8288 77.9197 32.2404 77.9197 31.6343C77.7687 31.6343 77.6176 31.6343 77.4619 31.6343C77.4619 31.4532 77.4619 31.2722 77.4619 31.0857C77.613 31.0857 77.7641 31.0857 77.9197 31.0857C77.916 31.0253 77.9122 30.965 77.9083 30.9028C77.9087 30.6113 78.0063 30.4049 78.2116 30.2C78.5779 29.9736 79.0042 29.9694 79.3847 30.1714Z" fill="#121212"/>
<path d="M117.475 30.4C117.475 30.6263 117.475 30.8526 117.475 31.0857C117.686 31.0857 117.898 31.0857 118.116 31.0857C118.116 31.2668 118.116 31.4478 118.116 31.6343C117.904 31.6343 117.693 31.6343 117.475 31.6343C117.479 31.8229 117.484 32.0114 117.489 32.2C117.49 32.2538 117.491 32.3075 117.492 32.3629C117.495 32.4398 117.495 32.4398 117.497 32.5182C117.498 32.5656 117.5 32.613 117.501 32.6619C117.507 32.6999 117.514 32.738 117.521 32.7772C117.669 32.8762 117.685 32.8783 117.85 32.8515C117.907 32.842 117.965 32.8326 118.024 32.8229C118.055 32.8971 118.085 32.9714 118.116 33.0457C118.133 33.0871 118.15 33.1285 118.167 33.1711C118.207 33.28 118.207 33.28 118.207 33.3715C117.921 33.5043 117.584 33.5207 117.28 33.4331C117.063 33.3238 116.976 33.1718 116.88 32.96C116.838 32.794 116.829 32.64 116.829 32.4691C116.83 32.4204 116.83 32.3716 116.83 32.3214C116.83 32.271 116.831 32.2205 116.831 32.1686C116.831 32.1173 116.831 32.066 116.832 32.0131C116.832 31.8869 116.833 31.7606 116.834 31.6343C116.698 31.6343 116.562 31.6343 116.422 31.6343C116.422 31.4533 116.422 31.2723 116.422 31.0857C116.558 31.0857 116.694 31.0857 116.834 31.0857C116.834 30.8896 116.834 30.6935 116.834 30.4915C117.372 30.4 117.372 30.4 117.475 30.4Z" fill="#121212"/>
<path d="M71.7395 30.4C71.7395 30.6263 71.7395 30.8526 71.7395 31.0857C71.951 31.0857 72.1625 31.0857 72.3804 31.0857C72.3804 31.2668 72.3804 31.4478 72.3804 31.6343C72.1689 31.6343 71.9574 31.6343 71.7395 31.6343C71.7435 31.8144 71.7484 31.9943 71.7538 32.1743C71.7548 32.2255 71.7559 32.2767 71.7569 32.3294C71.7594 32.403 71.7594 32.403 71.7619 32.4781C71.7631 32.5233 71.7643 32.5686 71.7655 32.6152C71.788 32.7474 71.8146 32.791 71.9226 32.8686C72.0279 32.8753 72.0279 32.8753 72.1372 32.8543C72.1742 32.8488 72.2112 32.8433 72.2494 32.8377C72.2775 32.8328 72.3057 32.8279 72.3347 32.8229C72.3578 32.8885 72.3806 32.9542 72.4033 33.02C72.4161 33.0566 72.4288 33.0932 72.442 33.1309C72.472 33.2343 72.472 33.2343 72.472 33.3715C72.1741 33.5085 71.847 33.513 71.5363 33.4115C71.3524 33.2771 71.2178 33.1344 71.1443 32.9143C71.1405 32.8166 71.1394 32.7187 71.1399 32.6209C71.14 32.5636 71.1402 32.5063 71.1403 32.4473C71.1407 32.3874 71.1411 32.3275 71.1415 32.2657C71.1417 32.2047 71.1419 32.1437 71.1421 32.0826C71.1426 31.9332 71.1434 31.7837 71.1443 31.6343C70.9933 31.6343 70.8422 31.6343 70.6865 31.6343C70.6865 31.4533 70.6865 31.2723 70.6865 31.0857C70.8376 31.0857 70.9887 31.0857 71.1443 31.0857C71.1443 30.8896 71.1443 30.6935 71.1443 30.4915C71.248 30.4397 71.3269 30.4318 71.4419 30.42C71.4783 30.4162 71.5146 30.4124 71.5521 30.4084C71.6479 30.4 71.6479 30.4 71.7395 30.4Z" fill="#121212"/>
<path d="M129.744 9.82861C130.484 9.82861 131.225 9.82861 131.987 9.82861C131.987 10.0096 131.987 10.1907 131.987 10.3772C131.7 10.3772 131.413 10.3772 131.118 10.3772C131.118 11.1013 131.118 11.8254 131.118 12.5715C130.936 12.5715 130.755 12.5715 130.568 12.5715C130.568 11.8474 130.568 11.1232 130.568 10.3772C130.296 10.3772 130.024 10.3772 129.744 10.3772C129.744 10.1962 129.744 10.0151 129.744 9.82861Z" fill="#121212"/>
<path d="M85.7942 31.1771C85.8168 31.2224 85.8168 31.2224 85.8399 31.2686C85.7843 31.3875 85.7843 31.3875 85.7055 31.5257C85.6795 31.5716 85.6536 31.6174 85.6269 31.6646C85.5964 31.7175 85.5964 31.7175 85.5652 31.7714C85.5317 31.7566 85.4982 31.7417 85.4637 31.7264C85.2389 31.6445 85.0172 31.6568 84.787 31.7143C84.6905 31.7616 84.6905 31.7616 84.6677 31.8453C84.643 31.9939 84.6388 32.1419 84.6351 32.2921C84.6342 32.3244 84.6332 32.3566 84.6322 32.3897C84.6293 32.4922 84.6266 32.5947 84.6239 32.6971C84.6219 32.7668 84.6199 32.8364 84.6179 32.9061C84.6129 33.0764 84.6084 33.2468 84.6038 33.4171C84.3923 33.4171 84.1808 33.4171 83.9629 33.4171C83.9629 32.6478 83.9629 31.8784 83.9629 31.0857C84.1593 31.0857 84.3557 31.0857 84.5581 31.0857C84.5732 31.131 84.5883 31.1762 84.6038 31.2229C84.6454 31.1936 84.6869 31.1644 84.7297 31.1343C85.0629 30.9231 85.4643 30.966 85.7942 31.1771Z" fill="#121212"/>
<path d="M109.234 30.08C109.43 30.08 109.627 30.08 109.829 30.08C109.829 31.1812 109.829 32.2825 109.829 33.4171C109.618 33.4171 109.406 33.4171 109.188 33.4171C109.187 32.9887 109.186 32.5604 109.186 32.132C109.186 31.9331 109.185 31.7343 109.185 31.5354C109.184 31.3436 109.184 31.1518 109.184 30.96C109.184 30.8867 109.184 30.8134 109.183 30.7401C109.183 30.6377 109.183 30.5354 109.183 30.433C109.183 30.3746 109.183 30.3163 109.183 30.2561C109.188 30.1257 109.188 30.1257 109.234 30.08Z" fill="#121212"/>
<path d="M94.6294 30.08C94.8258 30.08 95.0222 30.08 95.2246 30.08C95.2246 31.1812 95.2246 32.2825 95.2246 33.4171C95.0131 33.4171 94.8016 33.4171 94.5836 33.4171C94.5826 32.9887 94.5818 32.5604 94.5813 32.132C94.581 31.9331 94.5807 31.7343 94.5802 31.5354C94.5797 31.3436 94.5794 31.1518 94.5793 30.96C94.5792 30.8867 94.579 30.8134 94.5788 30.7401C94.5785 30.6377 94.5784 30.5354 94.5784 30.433C94.5783 30.3746 94.5782 30.3163 94.5781 30.2561C94.5836 30.1257 94.5836 30.1257 94.6294 30.08Z" fill="#121212"/>
<path d="M115.552 31.04C115.748 31.04 115.945 31.04 116.147 31.04C116.147 31.8245 116.147 32.609 116.147 33.4172C115.951 33.4172 115.754 33.4172 115.552 33.4172C115.552 32.6327 115.552 31.8483 115.552 31.04Z" fill="#121212"/>
<path d="M110.287 31.04C110.484 31.04 110.68 31.04 110.882 31.04C110.882 31.8245 110.882 32.609 110.882 33.4172C110.686 33.4172 110.489 33.4172 110.287 33.4172C110.287 32.6327 110.287 31.8483 110.287 31.04Z" fill="#121212"/>
<path d="M124.067 31.5885C124.657 31.5885 125.246 31.5885 125.853 31.5885C125.853 31.7846 125.853 31.9807 125.853 32.1828C125.264 32.1828 124.674 32.1828 124.067 32.1828C124.067 31.9867 124.067 31.7906 124.067 31.5885Z" fill="#121212"/>
<path d="M60.8428 31.5885C61.4169 31.5885 61.991 31.5885 62.5825 31.5885C62.5825 31.7846 62.5825 31.9807 62.5825 32.1828C62.0084 32.1828 61.4343 32.1828 60.8428 32.1828C60.8428 31.9867 60.8428 31.7906 60.8428 31.5885Z" fill="#121212"/>
<path d="M73.2502 32.8228C73.3818 32.8943 73.3818 32.8943 73.4791 33.0057C73.5356 33.3066 73.4054 33.596 73.2959 33.8743C73.2502 33.92 73.2502 33.92 73.1656 33.9244C73.0717 33.923 72.9778 33.9215 72.8839 33.92C72.9141 33.754 72.9443 33.5881 72.9755 33.4171C72.915 33.387 72.8546 33.3568 72.7923 33.3257C72.7701 32.9873 72.7701 32.9873 72.8667 32.8686C73.0085 32.809 73.0975 32.8011 73.2502 32.8228Z" fill="#121212"/>
<path d="M115.964 30.08C116.096 30.1485 116.096 30.1485 116.193 30.2628C116.227 30.4229 116.225 30.5702 116.144 30.7171C116.005 30.7935 115.894 30.8087 115.735 30.8114C115.601 30.7457 115.601 30.7457 115.506 30.6285C115.476 30.5004 115.478 30.3911 115.506 30.2628C115.63 30.0731 115.744 30.0441 115.964 30.08Z" fill="#121212"/>
<path d="M110.699 30.08C110.831 30.1485 110.831 30.1485 110.928 30.2628C110.962 30.4229 110.96 30.5702 110.88 30.7171C110.74 30.7935 110.629 30.8087 110.47 30.8114C110.336 30.7457 110.336 30.7457 110.242 30.6285C110.212 30.5004 110.213 30.3911 110.242 30.2628C110.365 30.0731 110.479 30.0441 110.699 30.08Z" fill="#121212"/>
</svg>
